<?xml version="1.0" encoding="UTF-8"?>
<svg id="Layer_1" xmlns="http://www.w3.org/2000/svg" version="1.1" viewBox="0 0 800 800">
  <!-- Generator: Adobe Illustrator 29.1.0, SVG Export Plug-In . SVG Version: 2.1.0 Build 142)  -->
  <defs>
    <style>
      .st0 {
        fill: #00b68a;
      }
    </style>
  </defs>
  <path class="st0" d="M183.3,116.7c0-8.8,4.6-17,12.2-21.5,7.6-4.5,17-4.7,24.7-.5l383.3,208.3c10,5.5,15.1,17,12.3,28.1s-12.8,18.8-24.2,18.8H208.3c-13.8,0-25-11.2-25-25V116.6h0Z"/>
  <path d="M195.5,638.2c-7.6-4.5-12.2-12.7-12.2-21.5v-208.3c0-13.8,11.2-25,25-25h383.3c11.4,0,21.4,7.8,24.2,18.8,2.8,11.1-2.2,22.7-12.3,28.1l-383.3,208.3c-7.7,4.2-17.1,4-24.7-.5h0ZM493.2,433.4H233.2v141.3l260-141.3h0Z"/>
</svg>