<?xml version="1.0" encoding="UTF-8"?>
<svg id="Layer_1" xmlns="http://www.w3.org/2000/svg" version="1.1" viewBox="0 0 800 800">
  <!-- Generator: Adobe Illustrator 29.1.0, SVG Export Plug-In . SVG Version: 2.1.0 Build 142)  -->
  <defs>
    <style>
      .st0 {
        fill: #00b68a;
      }
    </style>
  </defs>
  <path class="st0" d="M150,583.3c-8.8,0-17-4.6-21.5-12.2-4.5-7.6-4.7-17-.5-24.7l208.3-383.3c5.5-10,17-15.1,28.1-12.3,11.1,2.8,18.8,12.8,18.8,24.2v383.3c0,13.8-11.2,25-25,25h-208.3Z"/>
  <path d="M671.5,571.1c-4.5,7.6-12.7,12.2-21.5,12.2h-208.3c-13.8,0-25-11.2-25-25V175c0-11.4,7.8-21.4,18.8-24.2,11.1-2.8,22.7,2.2,28.1,12.3l208.3,383.3c4.2,7.7,4,17.1-.5,24.7ZM466.7,273.4v260h141.3l-141.3-260Z"/>
</svg>