<svg id="icons" xmlns="http://www.w3.org/2000/svg" viewBox="0 0 64 64"><title>triangular-ruler-graph-paper</title><g id="triangular-ruler-graph-paper"><rect x="20" y="1.99" width="42" height="60" fill="#64ddf9"/><rect x="23" y="4.99" width="36" height="54" fill="#3598dc"/><line x1="25" y1="40.99" x2="57" y2="40.99" fill="none" stroke="#2b7fb9" stroke-miterlimit="10" stroke-width="2"/><line x1="25" y1="46.99" x2="57" y2="46.99" fill="none" stroke="#2b7fb9" stroke-miterlimit="10" stroke-width="2"/><line x1="25" y1="52.99" x2="57" y2="52.99" fill="none" stroke="#2b7fb9" stroke-miterlimit="10" stroke-width="2"/><line x1="25" y1="34.99" x2="57" y2="34.99" fill="none" stroke="#2b7fb9" stroke-miterlimit="10" stroke-width="2"/><line x1="25" y1="28.99" x2="57" y2="28.99" fill="none" stroke="#2b7fb9" stroke-miterlimit="10" stroke-width="2"/><line x1="25" y1="22.99" x2="57" y2="22.99" fill="none" stroke="#2b7fb9" stroke-miterlimit="10" stroke-width="2"/><line x1="25" y1="16.99" x2="57" y2="16.99" fill="none" stroke="#2b7fb9" stroke-miterlimit="10" stroke-width="2"/><line x1="25" y1="10.99" x2="57" y2="10.99" fill="none" stroke="#2b7fb9" stroke-miterlimit="10" stroke-width="2"/><line x1="53" y1="6.99" x2="53" y2="56.99" fill="none" stroke="#2b7fb9" stroke-miterlimit="10" stroke-width="2"/><line x1="47" y1="6.99" x2="47" y2="56.99" fill="none" stroke="#2b7fb9" stroke-miterlimit="10" stroke-width="2"/><line x1="41" y1="6.99" x2="41" y2="56.99" fill="none" stroke="#2b7fb9" stroke-miterlimit="10" stroke-width="2"/><line x1="35" y1="6.99" x2="35" y2="56.99" fill="none" stroke="#2b7fb9" stroke-miterlimit="10" stroke-width="2"/><line x1="29" y1="6.99" x2="29" y2="56.99" fill="none" stroke="#2b7fb9" stroke-miterlimit="10" stroke-width="2"/><polygon points="62 61.99 20 61.99 20 19.99 20 1.99 62 1.99 62 61.99" fill="none" stroke="#37464f" stroke-miterlimit="10" stroke-width="2"/><polygon points="62 61.99 2 62.01 2 1.99 62 61.99" fill="#fe0"/><polygon points="4 6.82 57.17 59.99 4 60.01 4 6.82" fill="#ffc81a"/><polygon points="62 61.99 2 62.01 2 1.99 62 61.99" fill="none" stroke="#37464f" stroke-linecap="round" stroke-linejoin="round" stroke-width="2"/><polygon points="14 49.99 14 32.67 31 49.99 14 49.99" fill="#f5f6f7"/><polygon points="31 49.99 21 49.99 21 39.99 31 49.99" fill="#64ddf9"/><polygon points="31 49.99 23 49.99 23 41.99 31 49.99" fill="#3598dc"/><polygon points="14 49.99 14 32.67 31 49.99 14 49.99" fill="none" stroke="#37464f" stroke-linecap="round" stroke-linejoin="round" stroke-width="2"/><line x1="9.87" y1="11.26" x2="7.72" y2="13.4" fill="none" stroke="#37464f" stroke-linejoin="round" stroke-width="2"/><line x1="13.44" y1="14.83" x2="9.87" y2="18.41" fill="none" stroke="#37464f" stroke-linejoin="round" stroke-width="2"/><line x1="17.01" y1="18.41" x2="14.87" y2="20.55" fill="none" stroke="#37464f" stroke-linejoin="round" stroke-width="2"/><line x1="20.58" y1="21.98" x2="17.01" y2="25.55" fill="none" stroke="#37464f" stroke-linejoin="round" stroke-width="2"/><line x1="24.15" y1="25.55" x2="22.01" y2="27.7" fill="none" stroke="#37464f" stroke-linejoin="round" stroke-width="2"/><line x1="27.72" y1="29.13" x2="24.15" y2="32.7" fill="none" stroke="#37464f" stroke-linejoin="round" stroke-width="2"/><line x1="31.29" y1="32.7" x2="29.15" y2="34.84" fill="none" stroke="#37464f" stroke-linejoin="round" stroke-width="2"/><line x1="34.86" y1="36.27" x2="31.29" y2="39.85" fill="none" stroke="#37464f" stroke-linejoin="round" stroke-width="2"/><line x1="38.44" y1="39.85" x2="36.29" y2="41.99" fill="none" stroke="#37464f" stroke-linejoin="round" stroke-width="2"/><line x1="42.01" y1="43.42" x2="38.44" y2="46.99" fill="none" stroke="#37464f" stroke-linejoin="round" stroke-width="2"/><line x1="45.58" y1="46.99" x2="43.44" y2="49.14" fill="none" stroke="#37464f" stroke-linejoin="round" stroke-width="2"/><line x1="49.15" y1="50.57" x2="45.58" y2="54.14" fill="none" stroke="#37464f" stroke-linejoin="round" stroke-width="2"/><line x1="52.72" y1="54.14" x2="50.58" y2="56.28" fill="none" stroke="#37464f" stroke-linejoin="round" stroke-width="2"/></g></svg>