<?xml version="1.0" encoding="UTF-8"?>
<svg id="Layer_1" xmlns="http://www.w3.org/2000/svg" version="1.1" xmlns:xlink="http://www.w3.org/1999/xlink" viewBox="0 0 120 120">
  <!-- Generator: Adobe Illustrator 29.1.0, SVG Export Plug-In . SVG Version: 2.1.0 Build 142)  -->
  <defs>
    <style>
      .st0 {
        fill: #2a2a2a;
      }

      .st1 {
        fill: #fff;
      }

      .st2 {
        fill: #5b5b5b;
      }

      .st3 {
        fill: none;
      }

      .st4 {
        fill: #404040;
      }

      .st5 {
        clip-path: url(#clippath);
      }
    </style>
    <clipPath id="clippath">
      <rect class="st3" width="120" height="120"/>
    </clipPath>
  </defs>
  <g class="st5">
    <g id="Button_-_PS_Directional_Arrow_Down">
      <g id="Union_2">
        <path class="st0" d="M60,5h0c1.9,0,3.7.8,5,2.1l24.8,24.6c1.4,1.4,2.1,3.2,2.1,5.1v48.3c0,4.4-3.6,8-8,8h-48c-4.4,0-8-3.6-8-8v-48.3c0-1.9.8-3.8,2.1-5.1L55,7.1c1.3-1.3,3.1-2.1,5-2.1h0Z"/>
        <path class="st1" d="M60,7c-1.4,0-2.7.6-3.6,1.5l-24.8,24.6c-1,1-1.6,2.3-1.6,3.7v48.3c0,3.3,2.7,6,6,6h48c3.3,0,6-2.7,6-6v-48.3c0-1.4-.5-2.7-1.5-3.7l-24.8-24.6c-1-1-2.3-1.5-3.6-1.5M60,3h0c2.4,0,4.7,1,6.4,2.7l24.8,24.6c1.8,1.7,2.7,4.1,2.7,6.6v48.3c0,5.5-4.5,10-10,10h-48c-5.5,0-10-4.5-10-10v-48.3c0-2.5,1-4.8,2.7-6.6L53.5,5.7c1.7-1.7,4-2.7,6.4-2.7h0Z"/>
      </g>
      <g id="Union_3">
        <path class="st4" d="M60,10c.4,0,.8.2,1.1.5l21.5,21.1c.3.3.4.7.4,1.1v29.9s0,0,0,0h0c0,.1,0,.3,0,.3,0,0,0,0,0,.1v14.1c0,1.7-1.3,3-3,3h-40c-1.7,0-3-1.3-3-3v-14.1s0,0,0-.1h0c0-.1,0-.3,0-.3,0,0,0,0,0,0v-29.9c0-.4.2-.8.4-1l21.5-21.1c.3-.3.6-.4,1.1-.5Z"/>
        <path class="st2" d="M60,13.6l-20,19.7v43.9s40,0,40,0v-43.9l-20-19.7M60,7c1.2,0,2.3.5,3.2,1.3l21.5,21.1c.9.9,1.3,2,1.3,3.2v29.9c0,0,0,.2,0,.2,0,0,0,.2,0,.3v14.1c0,3.3-2.7,6-6,6h-40c-3.3,0-6-2.7-6-6v-14.1c0,0,0-.2,0-.3,0,0,0-.2,0-.2v-29.9c0-1.2.5-2.3,1.3-3.2l21.5-21.1c.8-.8,2-1.3,3.2-1.3Z"/>
      </g>
    </g>
  </g>
</svg>