<?xml version="1.0" encoding="UTF-8"?>
<svg id="Layer_1" xmlns="http://www.w3.org/2000/svg" version="1.1" xmlns:xlink="http://www.w3.org/1999/xlink" viewBox="0 0 120 120">
  <!-- Generator: Adobe Illustrator 29.1.0, SVG Export Plug-In . SVG Version: 2.1.0 Build 142)  -->
  <defs>
    <style>
      .st0 {
        fill: #2a2a2a;
      }

      .st1 {
        fill: #fff;
      }

      .st2 {
        fill: #5b5b5b;
      }

      .st3 {
        fill: none;
      }

      .st4 {
        fill: #404040;
      }

      .st5 {
        clip-path: url(#clippath);
      }
    </style>
    <clipPath id="clippath">
      <rect class="st3" width="120" height="120"/>
    </clipPath>
  </defs>
  <g class="st5">
    <g id="Button_-_PS_Directional_Arrow_Left">
      <g id="Union_2">
        <path class="st0" d="M26.9,83.1v-48c0-4.4,3.6-8,8-8h48.3c1.9,0,3.8.8,5.1,2.1l24.6,24.8c1.3,1.3,2.1,3.1,2.1,5h0s0,0,0,0c0,1.9-.8,3.7-2.1,5l-24.6,24.8c-1.4,1.4-3.2,2.1-5.1,2.1h-48.3c-4.4,0-8-3.6-8-8Z"/>
        <path class="st1" d="M28.9,83.1c0,3.3,2.7,6,6,6h48.3c1.4,0,2.7-.6,3.7-1.5l24.6-24.8c1-1,1.5-2.3,1.5-3.6,0-1.4-.6-2.7-1.5-3.6l-24.6-24.8c-1-1-2.3-1.5-3.7-1.5h-48.3c-3.3,0-6,2.7-6,6v48M24.9,83.1v-48c0-5.5,4.5-10,10-10h48.3c2.5,0,4.8,1,6.6,2.7l24.6,24.8c1.7,1.7,2.6,4,2.7,6.4h0c0,0,0,.2,0,.2,0,2.4-1,4.7-2.7,6.4l-24.6,24.8c-1.8,1.8-4.1,2.7-6.6,2.7h-48.3c-5.5,0-10-4.5-10-10Z"/>
      </g>
      <g id="Union_3">
        <path class="st4" d="M31.9,75.1v-40c0-1.7,1.3-3,3-3h43.2c.5,0,.9.2,1.3.5l22.3,21.5c.3.3.5.6.5,1,0,.4-.2.7-.5,1l-22.3,21.5c-.3.3-.8.5-1.3.5h-43.2c-1.7,0-3-1.3-3-3Z"/>
        <path class="st2" d="M34.9,75.1h0s14.1,0,14.1,0l28.2.3,21.1-20.4-20.3-20h-43.2s0,40,0,40M28.9,75.1v-40c0-3.3,2.7-6,6-6h43.2c1.3,0,2.5.5,3.4,1.3l22.3,21.5c.9.8,1.4,2,1.4,3.2,0,1.2-.5,2.3-1.4,3.2l-22.3,21.5c-.9.9-2.1,1.3-3.4,1.3h-43.2c-3.3,0-6-2.7-6-6Z"/>
      </g>
    </g>
  </g>
</svg>