<?xml version="1.0" encoding="UTF-8"?>
<svg id="Layer_1" xmlns="http://www.w3.org/2000/svg" version="1.1" xmlns:xlink="http://www.w3.org/1999/xlink" viewBox="0 0 120 120">
  <!-- Generator: Adobe Illustrator 29.1.0, SVG Export Plug-In . SVG Version: 2.1.0 Build 142)  -->
  <defs>
    <style>
      .st0 {
        fill: #2a2a2a;
      }

      .st1 {
        fill: #fff;
      }

      .st2 {
        fill: #5b5b5b;
      }

      .st3 {
        fill: none;
      }

      .st4 {
        fill: #404040;
      }

      .st5 {
        clip-path: url(#clippath);
      }
    </style>
    <clipPath id="clippath">
      <rect class="st3" width="120" height="120"/>
    </clipPath>
  </defs>
  <g class="st5">
    <g id="Button_-_PS_Directional_Arrow_Right">
      <g id="Union_2">
        <path class="st0" d="M4.9,59.1h0c0-1.9.8-3.7,2.1-5l24.6-24.8c1.4-1.4,3.2-2.1,5.1-2.1h48.3c4.4,0,8,3.6,8,8v48c0,4.4-3.6,8-8,8h-48.3c-1.9,0-3.8-.8-5.1-2.1l-24.6-24.8c-1.3-1.3-2.1-3.1-2.1-5h0Z"/>
        <path class="st1" d="M6.9,59.1c0,1.4.6,2.7,1.5,3.6l24.6,24.8c1,1,2.3,1.6,3.7,1.6h48.3c3.3,0,6-2.7,6-6v-48c0-3.3-2.7-6-6-6h-48.3c-1.4,0-2.7.5-3.7,1.5l-24.6,24.8c-1,1-1.5,2.3-1.5,3.6M2.9,59.1h0c0-2.5,1-4.8,2.7-6.5l24.6-24.8c1.7-1.8,4.1-2.7,6.6-2.7h48.3c5.5,0,10,4.5,10,10v48c0,5.5-4.5,10-10,10h-48.3c-2.5,0-4.8-1-6.6-2.7l-24.6-24.8c-1.7-1.7-2.7-4-2.7-6.4h0Z"/>
      </g>
      <g id="Union_3">
        <path class="st4" d="M17.9,55.1c0-.4.2-.7.5-1l22.3-21.5c.3-.3.8-.5,1.3-.5h43.2c1.7,0,3,1.3,3,3v40c0,1.7-1.3,3-3,3h-43.2c-.5,0-.9-.2-1.3-.5l-22.3-21.5c-.3-.3-.5-.6-.5-1Z"/>
        <path class="st2" d="M21.7,55.1l20.3,20h43.2s0-40,0-40h-11.7l-30.7-.3-21.1,20.4M14.9,55.1c0-1.2.5-2.3,1.4-3.2l22.3-21.5c.9-.9,2.1-1.3,3.4-1.3h43.2c3.3,0,6,2.7,6,6v40c0,3.3-2.7,6-6,6h-43.2c-1.3,0-2.5-.5-3.4-1.3l-22.3-21.5c-.9-.8-1.4-2-1.4-3.2Z"/>
      </g>
    </g>
  </g>
</svg>