<?xml version="1.0" encoding="UTF-8"?>
<svg id="Layer_1" xmlns="http://www.w3.org/2000/svg" version="1.1" xmlns:xlink="http://www.w3.org/1999/xlink" viewBox="0 0 120 120">
  <!-- Generator: Adobe Illustrator 29.1.0, SVG Export Plug-In . SVG Version: 2.1.0 Build 142)  -->
  <defs>
    <style>
      .st0 {
        fill: #2a2a2a;
      }

      .st1 {
        fill: #fff;
      }

      .st2 {
        fill: #5b5b5b;
      }

      .st3 {
        fill: none;
      }

      .st4 {
        fill: #404040;
      }

      .st5 {
        clip-path: url(#clippath);
      }
    </style>
    <clipPath id="clippath">
      <rect class="st3" width="120" height="120"/>
    </clipPath>
  </defs>
  <g class="st5">
    <g id="Button_-_PS_Directional_Arrow_Up">
      <g id="Union_2">
        <path class="st0" d="M60,115.2h0c-1.9,0-3.7-.8-5-2.1l-24.8-24.6c-1.4-1.4-2.1-3.2-2.1-5.1v-48.3c0-4.4,3.6-8,8-8h48c4.4,0,8,3.6,8,8v48.3c0,1.9-.8,3.8-2.1,5.1l-24.8,24.6c-1.3,1.3-3.1,2.1-5,2.1h0Z"/>
        <path class="st1" d="M60,113.2c1.4,0,2.7-.6,3.6-1.5l24.8-24.6c1-1,1.6-2.3,1.6-3.7v-48.3c0-3.3-2.7-6-6-6h-48c-3.3,0-6,2.7-6,6v48.3c0,1.4.5,2.7,1.5,3.7l24.8,24.6c1,1,2.3,1.5,3.6,1.5M60,117.2h0c-2.4,0-4.7-1-6.4-2.7l-24.8-24.6c-1.8-1.7-2.7-4.1-2.7-6.6v-48.3c0-5.5,4.5-10,10-10h48c5.5,0,10,4.5,10,10v48.3c0,2.5-1,4.8-2.7,6.6l-24.8,24.6c-1.7,1.7-4,2.7-6.4,2.7h0Z"/>
      </g>
      <g id="Union_3">
        <path class="st4" d="M60,102.2c-.4,0-.7-.2-1-.5l-21.5-22.3c-.3-.3-.5-.8-.5-1.3v-43.2c0-1.7,1.3-3,3-3h40c1.7,0,3,1.3,3,3v43.2c0,.5-.2.9-.5,1.3l-21.5,22.3c-.3.3-.6.5-1,.5Z"/>
        <path class="st2" d="M60,98.4l20-20.3v-43.2s-40,0-40,0v11.7l-.3,30.7,20.4,21.1M60,105.2c-1.2,0-2.3-.5-3.2-1.4l-21.5-22.3c-.9-.9-1.3-2.1-1.3-3.4v-43.2c0-3.3,2.7-6,6-6h40c3.3,0,6,2.7,6,6v43.2c0,1.3-.5,2.5-1.3,3.4l-21.5,22.3c-.8.9-2,1.4-3.2,1.4Z"/>
      </g>
    </g>
  </g>
</svg>