<?xml version="1.0" encoding="UTF-8"?>
<svg id="Layer_1" xmlns="http://www.w3.org/2000/svg" version="1.1" xmlns:xlink="http://www.w3.org/1999/xlink" viewBox="0 0 120 120">
  <!-- Generator: Adobe Illustrator 29.1.0, SVG Export Plug-In . SVG Version: 2.1.0 Build 142)  -->
  <defs>
    <style>
      .st0 {
        fill: #2a2a2a;
      }

      .st1, .st2 {
        fill: none;
      }

      .st2 {
        stroke: #fff;
        stroke-width: 4px;
      }

      .st3 {
        fill: #404040;
      }

      .st4 {
        fill: #fff;
        isolation: isolate;
        opacity: .5;
      }

      .st5 {
        clip-path: url(#clippath);
      }
    </style>
    <clipPath id="clippath">
      <rect class="st1" x="-1" width="120" height="120"/>
    </clipPath>
  </defs>
  <g class="st5">
    <g id="Button_-_PS_L2_2">
      <g id="Rectangle_49">
        <path class="st0" d="M103,90H17c-2.2,0-4-1.8-4-4v-27c0-18.8,15.2-34,34-34h46c7.7,0,14,6.3,14,14v47c0,2.2-1.8,4-4,4Z"/>
        <path class="st2" d="M103,92H17c-3.3,0-6-2.7-6-6v-27c0-19.9,16.1-36,36-36h46c8.8,0,16,7.2,16,16v47c0,3.3-2.7,6-6,6Z"/>
      </g>
      <path id="Rectangle_50" class="st3" d="M103,90H21c-2.2,0-4-1.8-4-4v-27c0-16.6,13.4-30,30-30h50c5.5,0,10,4.5,10,10v47c0,2.2-1.8,4-4,4Z"/>
      <path id="Path_78" class="st4" d="M51.3,80.8h6.8v3.9h-12v-21.2h5.1v17.3h.1ZM59.8,80.6c6.4-4.5,9.5-8.1,9.5-10.8s-.7-2.5-2.1-2.5-1.4.3-1.8.8c-.4.8-.6,1.7-.6,2.6h-5c0-2.2.8-4.3,2.3-5.8,1.5-1.3,3.5-2,5.5-2s3.8.5,5.2,1.7c1.2,1.2,1.8,2.8,1.8,4.5s-.9,4.4-2.4,6c-1.6,2-3.5,3.7-5.7,5h8.4v4.1h-15.1v-3.8.2h0Z"/>
    </g>
  </g>
</svg>