<?xml version="1.0" encoding="UTF-8"?>
<svg id="Layer_1" xmlns="http://www.w3.org/2000/svg" version="1.1" xmlns:xlink="http://www.w3.org/1999/xlink" viewBox="0 0 120 120">
  <!-- Generator: Adobe Illustrator 29.1.0, SVG Export Plug-In . SVG Version: 2.1.0 Build 142)  -->
  <defs>
    <style>
      .st0 {
        fill: #2a2a2a;
      }

      .st1 {
        fill: #fff;
      }

      .st2 {
        fill: #5b5b5b;
      }

      .st3, .st4 {
        fill: none;
      }

      .st4 {
        stroke: #fff;
        stroke-width: 4px;
      }

      .st5 {
        fill: #404040;
      }

      .st6 {
        clip-path: url(#clippath);
      }
    </style>
    <clipPath id="clippath">
      <rect class="st3" x="-1" width="120" height="120"/>
    </clipPath>
  </defs>
  <g class="st6">
    <g id="Button_-_PS_L2">
      <g id="Rectangle_49">
        <path class="st0" d="M101,90H15c-2.2,0-4-1.8-4-4v-27c0-18.8,15.2-34,34-34h46c7.7,0,14,6.3,14,14v47c0,2.2-1.8,4-4,4Z"/>
        <path class="st4" d="M101,92H15c-3.3,0-6-2.7-6-6v-27c0-19.9,16.1-36,36-36h46c8.8,0,16,7.2,16,16v47c0,3.3-2.7,6-6,6Z"/>
      </g>
      <path id="Rectangle_50" class="st5" d="M101,90H19c-2.2,0-4-1.8-4-4v-27c0-16.6,13.4-30,30-30h50c5.5,0,10,4.5,10,10v47c0,2.2-1.8,4-4,4Z"/>
      <path id="Rectangle_52" class="st2" d="M105,57H25.8c-1.6,0-2.8-1.3-2.8-2.8h0c0-11.7,9.5-21.2,21.2-21.2h53.8c3.9,0,7.1,3.2,7.1,7.1v16.9h0Z"/>
      <path id="Path_75" class="st1" d="M54.3,80.8h6.8v3.9h-12v-21.2h5.1v17.3h.1ZM62.8,80.6c6.4-4.5,9.5-8.1,9.5-10.8s-.7-2.5-2.1-2.5-1.4.3-1.8.8c-.4.8-.6,1.7-.6,2.6h-5c0-2.2.8-4.3,2.3-5.8,1.5-1.3,3.5-2,5.5-2s3.8.5,5.2,1.7c1.2,1.2,1.8,2.8,1.8,4.5s-.9,4.4-2.4,6c-1.6,2-3.5,3.7-5.7,5h8.4v4.1h-15.1v-3.8.2h0Z"/>
    </g>
  </g>
</svg>