<?xml version="1.0" encoding="UTF-8"?>
<svg id="Layer_1" xmlns="http://www.w3.org/2000/svg" version="1.1" xmlns:xlink="http://www.w3.org/1999/xlink" viewBox="0 0 120 120">
  <!-- Generator: Adobe Illustrator 29.1.0, SVG Export Plug-In . SVG Version: 2.1.0 Build 142)  -->
  <defs>
    <style>
      .st0 {
        fill: #2a2a2a;
      }

      .st1 {
        fill: #fff;
      }

      .st2, .st3 {
        fill: none;
      }

      .st3 {
        stroke: #fff;
        stroke-width: 4px;
      }

      .st4 {
        fill: #404040;
      }

      .st5 {
        clip-path: url(#clippath);
      }
    </style>
    <clipPath id="clippath">
      <rect class="st2" width="120" height="120"/>
    </clipPath>
  </defs>
  <g class="st5">
    <g id="Button_-_PS_Options">
      <g id="Rectangle_57">
        <path class="st0" d="M60,36h0c8.3,0,15,6.7,15,15v38c0,8.3-6.7,15-15,15h0c-8.3,0-15-6.7-15-15v-38c0-8.3,6.7-15,15-15Z"/>
        <path class="st3" d="M60,34h0c9.4,0,17,7.6,17,17v38c0,9.4-7.6,17-17,17h0c-9.4,0-17-7.6-17-17v-38c0-9.4,7.6-17,17-17Z"/>
      </g>
      <g id="Rectangle_58">
        <path class="st4" d="M60,40h0c6.1,0,11,4.9,11,11v29c0,6.1-4.9,11-11,11h0c-6.1,0-11-4.9-11-11v-29c0-6.1,4.9-11,11-11Z"/>
      </g>
      <path id="Rectangle_59" class="st4" d="M60,42h0c6.1,0,11,4.9,11,11v36c0,6.1-4.9,11-11,11h0c-6.1,0-11-4.9-11-11v-36c0-6.1,4.9-11,11-11Z"/>
      <path id="Path_85" class="st1" d="M30.6,19.8c.1,2-.5,3.9-1.7,5.4-1.3,1.3-3.1,2-4.9,1.9-1.9.1-3.7-.6-5-1.9-1.2-1.5-1.9-3.5-1.7-5.5-.1-2,.5-3.9,1.7-5.4,1.3-1.3,3.1-2,5-1.9,1.8-.1,3.6.6,4.9,1.9,1.2,1.5,1.9,3.5,1.7,5.4ZM19.7,19.8c0,1.4.3,2.8,1.1,4,.8.9,1.9,1.4,3.2,1.4,1.2,0,2.4-.4,3.1-1.3.8-1.2,1.2-2.6,1.1-4,0-1.4-.3-2.8-1.1-4-.8-.9-1.9-1.4-3.1-1.4-1.2,0-2.4.4-3.2,1.4-.8,1.2-1.2,2.6-1.1,4h0ZM43.1,17c0,1.3-.5,2.6-1.5,3.4-1.2.9-2.7,1.3-4.2,1.2h-1.5v5.3h-2.3v-14.3h4.1c1.4-.1,2.8.3,4,1.1.9.8,1.4,2,1.3,3.2h0ZM36,19.7h1.2c.9,0,1.8-.2,2.6-.6.6-.5.9-1.2.8-2,0-.7-.2-1.4-.8-1.8-.7-.5-1.5-.7-2.3-.6h-1.6v5ZM50.9,27h-2.3v-12.3h-4.2v-2h10.7v2h-4.2v12.3ZM57.3,27v-14.3h2.3v14.3h-2.3ZM76.1,19.8c.1,2-.5,3.9-1.7,5.4-1.3,1.3-3.1,2-4.9,1.9-1.9.1-3.7-.6-5-1.9-1.2-1.5-1.9-3.5-1.7-5.5-.1-2,.5-3.9,1.7-5.4,1.3-1.3,3.1-2,5-1.9,1.8-.1,3.6.6,4.9,1.9,1.2,1.5,1.9,3.5,1.7,5.4ZM65.2,19.8c0,1.4.3,2.8,1.1,4,.8.9,1.9,1.4,3.2,1.4,1.2,0,2.4-.4,3.1-1.3.8-1.2,1.2-2.6,1.1-4,0-1.4-.3-2.8-1.1-4-.8-.9-1.9-1.4-3.1-1.4-1.2,0-2.4.4-3.2,1.4-.8,1.2-1.2,2.6-1.1,4h0ZM91.1,27h-2.9l-7-11.4h0v.6c.1,1.2.2,2.3.2,3.3v7.4h-2.1v-14.3h2.8l7,11.3h0c0-.1,0-.7,0-1.6,0-.9,0-1.7,0-2.2v-7.5h2.1v14.3ZM103.1,23.1c0,1.2-.5,2.3-1.4,3-1.1.8-2.4,1.2-3.8,1.1-1.4,0-2.7-.2-4-.8v-2.2c.7.3,1.4.6,2.1.7.7.2,1.4.3,2,.3.7,0,1.4-.1,2-.5.4-.3.7-.9.7-1.4,0-.5-.2-1-.6-1.4-.8-.6-1.6-1-2.5-1.3-1.1-.4-2-1-2.8-1.8-.5-.7-.8-1.6-.8-2.4,0-1.1.4-2.1,1.3-2.8,1-.7,2.2-1.1,3.4-1,1.4,0,2.8.3,4.1.9l-.7,1.9c-1.1-.5-2.2-.8-3.4-.8-.6,0-1.2.1-1.7.5-.4.3-.6.8-.6,1.3,0,.3,0,.7.2,1,.2.3.5.6.8.7.6.4,1.3.7,1.9.9.8.3,1.6.7,2.3,1.2.5.3.8.8,1.1,1.3.2.5.4,1.1.3,1.7h0Z"/>
    </g>
  </g>
</svg>