<?xml version="1.0" encoding="UTF-8"?>
<svg id="Layer_1" xmlns="http://www.w3.org/2000/svg" version="1.1" xmlns:xlink="http://www.w3.org/1999/xlink" viewBox="0 0 120 120">
  <!-- Generator: Adobe Illustrator 29.1.0, SVG Export Plug-In . SVG Version: 2.1.0 Build 142)  -->
  <defs>
    <style>
      .st0 {
        fill: #2a2a2a;
      }

      .st1, .st2 {
        fill: none;
      }

      .st2 {
        stroke: #fff;
        stroke-width: 4px;
      }

      .st3 {
        fill: #404040;
      }

      .st4 {
        fill: #fff;
        isolation: isolate;
        opacity: .5;
      }

      .st5 {
        clip-path: url(#clippath);
      }
    </style>
    <clipPath id="clippath">
      <rect class="st1" width="120" height="120"/>
    </clipPath>
  </defs>
  <g class="st5">
    <g id="Button_-_PS_R1_2">
      <g id="Rectangle_49">
        <path class="st0" d="M14,56v-22c0-2.2,1.8-4,4-4h86c2.2,0,4,1.8,4,4v22c0,18.8-15.2,34-34,34h-26c-18.8,0-34-15.2-34-34Z"/>
        <path class="st2" d="M12,56v-22c0-3.3,2.7-6,6-6h86c3.3,0,6,2.7,6,6v22c0,19.9-16.1,36-36,36h-26c-19.9,0-36-16.1-36-36Z"/>
      </g>
      <path id="Rectangle_50" class="st3" d="M18,56v-18c0-2.2,1.8-4,4-4h82c2.2,0,4,1.8,4,4v18c0,18.8-15.2,34-34,34h-22c-18.8,0-34-15.2-34-34Z"/>
      <path id="Path_79" class="st4" d="M58.8,70.2l-4.6-8h-1.2v8h-5.1v-21.2h8.8c1.5,0,2.9.3,4.3.9,1.1.5,2,1.3,2.6,2.4.6,1.1.9,2.3.9,3.5,0,1.4-.4,2.8-1.3,3.9-.9,1.1-2.3,1.9-3.7,2.2l5,8.3h-5.7ZM53,58.7h3.2c.8,0,1.6-.2,2.3-.7.5-.5.8-1.3.7-2,0-.7-.2-1.5-.7-2-.6-.5-1.4-.8-2.2-.7h-3.2s0,5.4,0,5.4ZM65.5,53.8v-4.8h8.6v21.2h-5.4v-16.4h-3.2Z"/>
    </g>
  </g>
</svg>