<?xml version="1.0" encoding="UTF-8"?>
<svg id="Layer_1" xmlns="http://www.w3.org/2000/svg" version="1.1" xmlns:xlink="http://www.w3.org/1999/xlink" viewBox="0 0 120 120">
  <!-- Generator: Adobe Illustrator 29.1.0, SVG Export Plug-In . SVG Version: 2.1.0 Build 142)  -->
  <defs>
    <style>
      .st0 {
        fill: #2a2a2a;
      }

      .st1 {
        fill: #fff;
      }

      .st2 {
        fill: #5b5b5b;
      }

      .st3, .st4 {
        fill: none;
      }

      .st4 {
        stroke: #fff;
        stroke-width: 4px;
      }

      .st5 {
        fill: #404040;
      }

      .st6 {
        clip-path: url(#clippath);
      }
    </style>
    <clipPath id="clippath">
      <rect class="st3" width="120" height="120"/>
    </clipPath>
  </defs>
  <g class="st6">
    <g id="Button_-_PS_R2">
      <g id="Rectangle_49">
        <path class="st0" d="M102,90H16c-2.2,0-4-1.8-4-4v-47c0-7.7,6.3-14,14-14h46c18.8,0,34,15.2,34,34v27c0,2.2-1.8,4-4,4Z"/>
        <path class="st4" d="M102,92H16c-3.3,0-6-2.7-6-6v-47c0-8.8,7.2-16,16-16h46c19.9,0,36,16.1,36,36v27c0,3.3-2.7,6-6,6Z"/>
      </g>
      <path id="Rectangle_50" class="st5" d="M98,90H16c-2.2,0-4-1.8-4-4v-47c0-5.5,4.5-10,10-10h50c16.6,0,30,13.4,30,30v27c0,2.2-1.8,4-4,4Z"/>
      <path id="Rectangle_52" class="st2" d="M91.2,57H12v-16.9c0-3.9,3.2-7.1,7.1-7.1h53.8c11.7,0,21.2,9.5,21.2,21.2h0c0,1.6-1.3,2.8-2.8,2.8h0s0,0,0,0Z"/>
      <path id="Path_76" class="st1" d="M46.7,84.7l-4.6-8h-1.2v8h-5.1v-21.2h8.8c1.5,0,2.9.3,4.3.9,1.1.5,2,1.3,2.6,2.4s.9,2.3.9,3.5c0,1.2-.4,2.8-1.3,3.9s-2.3,1.9-3.7,2.2l5,8.3s-5.7,0-5.7,0ZM40.9,73.2h3.2c.8,0,1.6-.2,2.2-.7.5-.5.8-1.3.7-2,0-.7-.2-1.5-.7-2-.6-.5-1.4-.8-2.2-.7h-3.2s0,5.4,0,5.4ZM54.1,80.6c6.4-4.5,9.5-8.1,9.5-10.8s-.7-2.5-2.1-2.5-1.4.3-1.8.8c-.4.8-.6,1.7-.6,2.6h-5c0-2.2.8-4.3,2.3-5.8,1.5-1.3,3.5-2,5.5-2s3.8.5,5.2,1.7c1.2,1.2,1.8,2.8,1.8,4.5s-.9,4.4-2.4,6c-1.6,2-3.5,3.7-5.7,5h8.4v4.1h-15.1s0-3.8,0-3.8v.2h0Z"/>
    </g>
  </g>
</svg>