<?xml version="1.0" encoding="UTF-8"?>
<svg id="Layer_1" xmlns="http://www.w3.org/2000/svg" version="1.1" xmlns:xlink="http://www.w3.org/1999/xlink" viewBox="0 0 120 120">
  <!-- Generator: Adobe Illustrator 29.1.0, SVG Export Plug-In . SVG Version: 2.1.0 Build 142)  -->
  <defs>
    <style>
      .st0 {
        fill: #2a2a2a;
      }

      .st1 {
        fill: #fff;
      }

      .st2, .st3 {
        fill: none;
      }

      .st3 {
        stroke: #fff;
        stroke-width: 4px;
      }

      .st4 {
        fill: #404040;
      }

      .st5 {
        clip-path: url(#clippath);
      }
    </style>
    <clipPath id="clippath">
      <rect class="st2" width="120" height="120"/>
    </clipPath>
  </defs>
  <g class="st5">
    <g id="Button_-_PS_Share">
      <path id="Path_86" class="st1" d="M38.5,23.1c0,1.2-.5,2.3-1.4,3-1.1.8-2.4,1.2-3.8,1.1-1.4,0-2.7-.2-4-.8v-2.2c.7.3,1.4.6,2.1.7.7.2,1.4.3,2,.3.7,0,1.4-.1,2-.5.4-.3.7-.9.7-1.4,0-.5-.2-1-.6-1.4-.8-.6-1.6-1-2.5-1.3-1.1-.4-2-1-2.8-1.8-.5-.7-.8-1.6-.8-2.4,0-1.1.4-2.1,1.3-2.8,1-.7,2.2-1.1,3.4-1,1.4,0,2.8.3,4.1.9l-.7,1.9c-1.1-.5-2.2-.8-3.4-.8-.6,0-1.2.1-1.7.5-.4.3-.6.8-.6,1.3,0,.3,0,.7.2,1,.2.3.5.6.8.7.6.4,1.3.7,1.9.9.8.3,1.6.7,2.3,1.2.5.3.8.8,1.1,1.3.2.5.4,1.1.3,1.7ZM52.5,27h-2.3v-6.4h-6.6v6.4h-2.3v-14.3h2.3v5.8h6.6v-5.8h2.3v14.3ZM65.2,27l-1.4-4h-5.5l-1.4,4h-2.5l5.3-14.3h2.5l5.3,14.3h-2.5ZM63.1,21l-1.3-3.9c0-.3-.2-.7-.4-1.2-.2-.6-.3-1-.4-1.2-.2.9-.5,1.8-.8,2.6l-1.3,3.7h4.2ZM71.9,19.4h1.6c.8,0,1.7-.1,2.4-.6.5-.5.8-1.1.7-1.8,0-.7-.2-1.3-.8-1.7-.7-.4-1.6-.6-2.4-.5h-1.5v4.7ZM71.9,21.3v5.7h-2.3v-14.3h4c1.4-.1,2.9.3,4.1,1,.9.8,1.4,1.9,1.3,3.1,0,1.7-1.1,3.3-2.8,3.8l4,6.3h-2.7l-3.4-5.7h-2.3ZM90.4,27h-8.1v-14.3h8.1v2h-5.7v3.9h5.4v2h-5.4v4.5h5.7v2Z"/>
      <g id="Rectangle_57">
        <path class="st0" d="M60,36h0c8.3,0,15,6.7,15,15v38c0,8.3-6.7,15-15,15h0c-8.3,0-15-6.7-15-15v-38c0-8.3,6.7-15,15-15Z"/>
        <path class="st3" d="M60,34h0c9.4,0,17,7.6,17,17v38c0,9.4-7.6,17-17,17h0c-9.4,0-17-7.6-17-17v-38c0-9.4,7.6-17,17-17Z"/>
      </g>
      <g id="Rectangle_58">
        <path class="st4" d="M60,40h0c6.1,0,11,4.9,11,11v29c0,6.1-4.9,11-11,11h0c-6.1,0-11-4.9-11-11v-29c0-6.1,4.9-11,11-11Z"/>
      </g>
      <path id="Rectangle_59" class="st4" d="M60,42h0c6.1,0,11,4.9,11,11v36c0,6.1-4.9,11-11,11h0c-6.1,0-11-4.9-11-11v-36c0-6.1,4.9-11,11-11Z"/>
    </g>
  </g>
</svg>