<?xml version="1.0" encoding="UTF-8"?>
<svg id="Layer_1" xmlns="http://www.w3.org/2000/svg" version="1.1" xmlns:xlink="http://www.w3.org/1999/xlink" viewBox="0 0 120 120">
  <!-- Generator: Adobe Illustrator 29.1.0, SVG Export Plug-In . SVG Version: 2.1.0 Build 142)  -->
  <defs>
    <style>
      .st0 {
        fill: #2a2a2a;
      }

      .st1, .st2 {
        fill: none;
      }

      .st2 {
        stroke: #fff;
        stroke-width: 4px;
      }

      .st3 {
        clip-path: url(#clippath);
      }
    </style>
    <clipPath id="clippath">
      <rect class="st1" width="120" height="120"/>
    </clipPath>
  </defs>
  <g class="st3">
    <g id="Button_-_PS_Touchpad">
      <g id="Rectangle_49">
        <path class="st0" d="M18,30h84c2.2,0,4,1.8,4,4v48c0,4.4-3.6,8-8,8H22c-4.4,0-8-3.6-8-8v-48c0-2.2,1.8-4,4-4Z"/>
        <path class="st2" d="M18,28h84c3.3,0,6,2.7,6,6v48c0,5.5-4.5,10-10,10H22c-5.5,0-10-4.5-10-10v-48c0-3.3,2.7-6,6-6Z"/>
      </g>
    </g>
  </g>
</svg>